<?xml version="1.0" encoding="UTF-8" standalone="no"?>
<svg
   width="8.5in"
   height="8.5in"
   version="1.1"
   id="svg4579"
   sodipodi:docname="Base.svg"
   inkscape:version="1.1.1 (3bf5ae0d25, 2021-09-20)"
   xmlns:inkscape="http://www.inkscape.org/namespaces/inkscape"
   xmlns:sodipodi="http://sodipodi.sourceforge.net/DTD/sodipodi-0.dtd"
   xmlns="http://www.w3.org/2000/svg"
   xmlns:svg="http://www.w3.org/2000/svg"
   xmlns:rdf="http://www.w3.org/1999/02/22-rdf-syntax-ns#"
   xmlns:cc="http://creativecommons.org/ns#"
   xmlns:dc="http://purl.org/dc/elements/1.1/">
  <metadata
     id="metadata4583">
    <rdf:RDF>
      <cc:Work
         rdf:about="">
        <dc:format>image/svg+xml</dc:format>
        <dc:type
           rdf:resource="http://purl.org/dc/dcmitype/StillImage" />
        <dc:title />
      </cc:Work>
    </rdf:RDF>
  </metadata>
  <sodipodi:namedview
     pagecolor="#ffffff"
     bordercolor="#666666"
     borderopacity="1"
     objecttolerance="10"
     gridtolerance="10"
     guidetolerance="10"
     inkscape:pageopacity="0"
     inkscape:pageshadow="2"
     inkscape:window-width="2160"
     inkscape:window-height="1346"
     id="namedview4581"
     showgrid="false"
     units="in"
     inkscape:zoom="1.0683582"
     inkscape:cx="255.06426"
     inkscape:cy="333.22157"
     inkscape:window-x="-11"
     inkscape:window-y="-11"
     inkscape:window-maximized="1"
     inkscape:current-layer="g177"
     inkscape:pagecheckerboard="0"
     inkscape:document-units="in" />
  <desc
     id="desc4518">C:\Users\Rob\Documents\GitHub\Miscellaneous\Christmas Pyramid\Base.DXF - scale = 25.400000, origin = (0.000000, 0.000000), method = file</desc>
  <defs
     id="defs4533">
    <marker
       id="DistanceX"
       orient="auto"
       refX="0"
       refY="0"
       style="overflow:visible">
      <path
         d="M 3,-3 -3,3 M 0,-5 V 5"
         style="stroke:#000000;stroke-width:0.5"
         id="path4520"
         inkscape:connector-curvature="0" />
    </marker>
    <pattern
       height="8"
       id="Hatch"
       patternUnits="userSpaceOnUse"
       width="8"
       x="0"
       y="0">
      <path
         d="M8 4 l-4,4"
         linecap="square"
         stroke="#000000"
         stroke-width="0.25"
         id="path4523" />
      <path
         d="M6 2 l-4,4"
         linecap="square"
         stroke="#000000"
         stroke-width="0.25"
         id="path4525" />
      <path
         d="M4 0 l-4,4"
         linecap="square"
         stroke="#000000"
         stroke-width="0.25"
         id="path4527" />
    </pattern>
    <symbol
       id="*Model_Space" />
    <symbol
       id="*Paper_Space" />
    <symbol
       id="*Paper_Space0" />
    <marker
       id="DistanceX-6"
       orient="auto"
       refX="0.0"
       refY="0.0"
       style="overflow:visible">
      <path
         d="M 3,-3 L -3,3 M 0,-5 L  0,5"
         style="stroke:#000000; stroke-width:0.5"
         id="path120" />
    </marker>
    <pattern
       id="Hatch-4"
       patternUnits="userSpaceOnUse"
       width="8"
       height="8"
       x="0"
       y="0">
      <path
         d="M8 4 l-4,4"
         stroke="#000000"
         stroke-width="0.25"
         linecap="square"
         id="path123" />
      <path
         d="M6 2 l-4,4"
         stroke="#000000"
         stroke-width="0.25"
         linecap="square"
         id="path125" />
      <path
         d="M4 0 l-4,4"
         stroke="#000000"
         stroke-width="0.25"
         linecap="square"
         id="path127" />
    </pattern>
    <symbol
       id="*Model_Space-9" />
    <symbol
       id="*Paper_Space-1" />
    <symbol
       id="*Paper_Space0-7" />
  </defs>
  <g
     inkscape:groupmode="layer"
     inkscape:label="0"
     id="g4577"
     transform="translate(0,-306.51965)">
    <g
       inkscape:label="0"
       id="g177"
       transform="translate(409.97485,-404.15317)">
      <path
         style="color:#000000;fill:#000000;stroke-linecap:round;-inkscape-stroke:none"
         d="m 220.61719,828.94336 c -40.28328,0 -72.95899,32.67567 -72.95899,72.95898 0,40.28331 32.67571,72.96094 72.95899,72.96094 40.28328,0 72.96093,-32.67763 72.96093,-72.96094 0,-40.28331 -32.67765,-72.95898 -72.96093,-72.95898 z m 0,1.91992 c 39.24564,0 71.04101,31.7934 71.04101,71.03906 0,39.24567 -31.79537,71.03907 -71.04101,71.03907 -39.24564,0 -71.03907,-31.7934 -71.03907,-71.03907 0,-39.24566 31.79343,-71.03906 71.03907,-71.03906 z"
         id="path135" />
      <path
         style="color:#000000;fill:#000000;stroke-linecap:round;-inkscape-stroke:none"
         d="m 220.61719,1270.1777 c -40.28328,0 -72.95899,32.6757 -72.95899,72.959 0,40.2833 32.67571,72.961 72.95899,72.961 40.28328,0 72.96093,-32.6777 72.96093,-72.961 0,-40.2833 -32.67765,-72.959 -72.96093,-72.959 z m 0,1.92 c 39.24564,0 71.04101,31.7934 71.04101,71.039 0,39.2457 -31.79537,71.041 -71.04101,71.041 -39.24564,0 -71.03907,-31.7953 -71.03907,-71.041 0,-39.2456 31.79343,-71.039 71.03907,-71.039 z"
         id="path137" />
      <path
         style="color:#000000;fill:#000000;stroke-linecap:round;-inkscape-stroke:none"
         d="m -220.61719,1270.1777 c -40.28328,0 -72.96093,32.6757 -72.96093,72.959 0,40.2833 32.67765,72.961 72.96093,72.961 40.28328,0 72.95899,-32.6777 72.95899,-72.961 0,-40.2833 -32.67571,-72.959 -72.95899,-72.959 z m 0,1.92 c 39.24564,0 71.03907,31.7934 71.03907,71.039 0,39.2457 -31.79343,71.041 -71.03907,71.041 -39.24564,0 -71.04101,-31.7953 -71.04101,-71.041 0,-39.2456 31.79537,-71.039 71.04101,-71.039 z"
         id="path139" />
      <path
         style="color:#000000;fill:#000000;stroke-linecap:round;-inkscape-stroke:none"
         d="m -220.61719,828.94336 c -40.28328,0 -72.96093,32.67567 -72.96093,72.95898 0,40.28331 32.67765,72.96094 72.96093,72.96094 40.28328,0 72.95899,-32.67763 72.95899,-72.96094 0,-40.28331 -32.67571,-72.95898 -72.95899,-72.95898 z m 0,1.91992 c 39.24564,0 71.03907,31.7934 71.03907,71.03906 0,39.24567 -31.79343,71.03907 -71.03907,71.03907 -39.24564,0 -71.04101,-31.7934 -71.04101,-71.03907 0,-39.24566 31.79537,-71.03906 71.04101,-71.03906 z"
         id="path141" />
      <path
         d="m 408,1122.5197 a 408,408 0 1 0 -816,0 408,408 0 1 0 816,0 z"
         style="fill:none;stroke:#000000;stroke-width:0.6;stroke-linecap:round"
         id="path143" />
      <path
         style="fill:none;stroke:#000000;stroke-width:0.6;stroke-linecap:round"
         d="M 381.6,1117 H 334.56"
         id="path145" />
      <path
         style="fill:none;stroke:#000000;stroke-width:0.6;stroke-linecap:round"
         d="m 334.56,1117 v 11.04"
         id="path147" />
      <path
         style="fill:none;stroke:#000000;stroke-width:0.6;stroke-linecap:round"
         d="M 334.56,1128.04 H 381.6"
         id="path149" />
      <path
         style="fill:none;stroke:#000000;stroke-width:0.6;stroke-linecap:round"
         d="M 381.6,1128.04 V 1117"
         id="path151" />
      <path
         style="fill:none;stroke:#000000;stroke-width:0.6;stroke-linecap:round"
         d="m 5.52,1504.12 v -47.04"
         id="path153" />
      <path
         style="fill:none;stroke:#000000;stroke-width:0.6;stroke-linecap:round"
         d="M 5.52,1457.08 H -5.52"
         id="path155" />
      <path
         style="fill:none;stroke:#000000;stroke-width:0.6;stroke-linecap:round"
         d="M -5.52,1504.12 H 5.52"
         id="path157" />
      <path
         style="fill:none;stroke:#000000;stroke-width:0.6;stroke-linecap:round"
         d="m -381.6,1128.04 h 47.04"
         id="path159" />
      <path
         style="fill:none;stroke:#000000;stroke-width:0.6;stroke-linecap:round"
         d="M -334.56,1128.04 V 1117"
         id="path161" />
      <path
         style="fill:none;stroke:#000000;stroke-width:0.6;stroke-linecap:round"
         d="M -334.56,1117 H -381.6"
         id="path163" />
      <path
         style="fill:none;stroke:#000000;stroke-width:0.6;stroke-linecap:round"
         d="m -381.6,1117 v 11.04"
         id="path165" />
      <path
         style="fill:none;stroke:#000000;stroke-width:0.6;stroke-linecap:round"
         d="m -5.52,740.92 v 47.04"
         id="path167" />
      <path
         style="fill:none;stroke:#000000;stroke-width:0.6;stroke-linecap:round"
         d="M -5.52,787.96 H 5.52"
         id="path169" />
      <path
         style="fill:none;stroke:#000000;stroke-width:0.6;stroke-linecap:round"
         d="M 5.52,787.96 V 740.92"
         id="path171" />
      <path
         style="fill:none;stroke:#000000;stroke-width:0.6;stroke-linecap:round"
         d="M 5.52,740.92 H -5.52"
         id="path173" />
      <path
         style="fill:none;stroke:#000000;stroke-width:0.6;stroke-linecap:round"
         d="m -5.52,1457.08 v 47.04"
         id="path175" />
    </g>
  </g>
</svg>
