999
"DXF R12 Output" (www.mydxf.blogspot.com)
 0 
SECTION
 2 
HEADER
 9 
$ACADVER
 1 
AC1009
 9 
$EXTMIN
 10 
 0 
 20 
 0 
 9 
$EXTMAX
 10 
 8.5 
 20 
 11 
 0 
ENDSEC
 0 
SECTION
 2 
ENTITIES
0
LINE
8
Layer 1
10
0.846666
20
317.647000
11
-0.846666
21
315.953000
0
LINE
8
Layer 1
10
0.000000
20
318.211000
11
0.000000
21
315.389000
0
LINE
8
Layer 1
10
2.257780
20
315.671000
11
1.128890
21
314.542110
0
LINE
8
Layer 1
10
1.693330
20
316.236000
11
0.564440
21
315.107110
0
LINE
8
Layer 1
10
1.128890
20
316.800000
11
0.000000
21
315.671110
0
LINE
8
Layer 1
10
0.846666
20
317.647000
11
-0.846666
21
315.953000
0
LINE
8
Layer 1
10
0.000000
20
318.211000
11
0.000000
21
315.389000
0
LINE
8
Layer 1
10
2.257780
20
315.671000
11
1.128890
21
314.542110
0
LINE
8
Layer 1
10
1.693330
20
316.236000
11
0.564440
21
315.107110
0
LINE
8
Layer 1
10
1.128890
20
316.800000
11
0.000000
21
315.671110
0
LINE
8
Layer 1
10
0.846666
20
317.647000
11
-0.846666
21
315.953000
0
LINE
8
Layer 1
10
0.000000
20
318.211000
11
0.000000
21
315.389000
0
LINE
8
Layer 1
10
2.257780
20
315.671000
11
1.128890
21
314.542110
0
LINE
8
Layer 1
10
1.693330
20
316.236000
11
0.564440
21
315.107110
0
LINE
8
Layer 1
10
1.128890
20
316.800000
11
0.000000
21
315.671110
0
LINE
8
0
10
-0.981332
20
0.285444
11
-0.734346
21
0.142847
0
LINE
8
0
10
-0.734346
20
0.142847
11
-0.734346
21
-0.142348
0
LINE
8
0
10
-0.734346
20
-0.142348
11
-0.981332
21
-0.284945
0
LINE
8
0
10
-0.981332
20
-0.284945
11
-1.228320
21
-0.142348
0
LINE
8
0
10
-1.228320
20
-0.142348
11
-1.228320
21
0.142847
0
LINE
8
0
10
-1.228320
20
0.142847
11
-0.981332
21
0.285444
0
LINE
8
0
10
-0.981331
20
0.000161
11
-0.487361
21
0.285205
0
LINE
8
0
10
-0.981331
20
0.000161
11
-0.981331
21
0.570249
0
LINE
8
0
10
-0.981331
20
0.446071
11
-0.890822
21
0.536382
0
LINE
8
0
10
-0.981331
20
0.446071
11
-1.071840
21
0.536382
0
LINE
8
0
10
-0.595155
20
0.223116
11
-0.471517
21
0.189249
0
LINE
8
0
10
-0.595155
20
0.223116
11
-0.562028
21
0.347294
0
LINE
8
0
10
-0.981331
20
0.000161
11
-0.487361
21
-0.284884
0
LINE
8
0
10
-0.595155
20
-0.222795
11
-0.562028
21
-0.346972
0
LINE
8
0
10
-0.595155
20
-0.222795
11
-0.471517
21
-0.188928
0
LINE
8
0
10
-0.981331
20
0.000161
11
-0.981331
21
-0.569928
0
LINE
8
0
10
-0.981331
20
-0.445750
11
-1.071840
21
-0.536061
0
LINE
8
0
10
-0.981331
20
-0.445750
11
-0.890822
21
-0.536061
0
LINE
8
0
10
-0.981331
20
0.000161
11
-1.475300
21
-0.284884
0
LINE
8
0
10
-1.367510
20
-0.222795
11
-1.491150
21
-0.188928
0
LINE
8
0
10
-1.367510
20
-0.222795
11
-1.400640
21
-0.346972
0
LINE
8
0
10
-0.981331
20
0.000161
11
-1.475300
21
0.285205
0
LINE
8
0
10
-1.367510
20
0.223116
11
-1.400640
21
0.347294
0
LINE
8
0
10
-1.367510
20
0.223116
11
-1.491150
21
0.189249
0
LINE
8
0
10
-0.910777
20
0.000249
11
-0.946056
21
0.061352
0
LINE
8
0
10
-0.946056
20
0.061352
11
-1.016611
21
0.061352
0
LINE
8
0
10
-1.016611
20
0.061352
11
-1.051889
21
0.000249
0
LINE
8
0
10
-1.051889
20
0.000249
11
-1.016611
21
-0.060853
0
LINE
8
0
10
-1.016611
20
-0.060853
11
-0.946055
21
-0.060853
0
LINE
8
0
10
-0.946055
20
-0.060853
11
-0.910777
21
0.000249
0
LINE
8
0
10
-0.910777
20
0.000249
11
-0.910777
21
0.000249
0
LINE
8
0
10
-0.910777
20
0.000249
11
-0.946056
21
0.061352
0
LINE
8
0
10
-0.946056
20
0.061352
11
-1.016611
21
0.061352
0
LINE
8
0
10
-1.016611
20
0.061352
11
-1.051889
21
0.000249
0
LINE
8
0
10
-1.051889
20
0.000249
11
-1.016611
21
-0.060853
0
LINE
8
0
10
-1.016611
20
-0.060853
11
-0.946055
21
-0.060853
0
LINE
8
0
10
-0.946055
20
-0.060853
11
-0.910777
21
0.000249
0
LINE
8
0
10
-0.910777
20
0.000249
11
-0.910777
21
0.000249
0
LINE
8
0
10
-1.776500
20
-0.798528
11
-0.081701
21
-0.798528
0
LINE
8
0
10
-0.176502
20
0.798849
11
-1.776500
21
0.798849
0
LINE
8
0
10
-1.776500
20
0.798849
11
-3.733320
21
0.533560
0
LINE
8
0
10
-3.733320
20
0.533560
11
-3.733320
21
-0.533239
0
LINE
8
0
10
-3.733320
20
-0.533239
11
-1.776500
21
-0.798528
0
LINE
8
0
10
-0.081701
20
-0.799750
11
-0.000440
21
0.007873
0
LINE
8
0
10
-0.000440
20
0.007873
11
-0.176502
21
0.800249
0
LINE
8
0
10
-24.925800
20
7.244210
11
-23.623596
21
5.922541
0
LINE
8
0
10
-23.623596
20
5.922541
11
-22.118073
21
4.863379
0
LINE
8
0
10
-22.118073
20
4.863379
11
-20.448051
21
4.089138
0
LINE
8
0
10
-20.448051
20
4.089138
11
-18.652350
21
3.622230
0
LINE
8
0
10
-18.652400
20
3.622230
11
-19.145897
21
1.833653
0
LINE
8
0
10
-19.145897
20
1.833653
11
-19.310396
21
0.000250
0
LINE
8
0
10
-19.310396
20
0.000250
11
-19.145897
21
-1.833153
0
LINE
8
0
10
-19.145897
20
-1.833153
11
-18.652400
21
-3.621730
0
LINE
8
0
10
-18.652400
20
-3.621740
11
-20.448087
21
-4.088654
0
LINE
8
0
10
-20.448087
20
-4.088654
11
-22.118096
21
-4.862897
0
LINE
8
0
10
-22.118096
20
-4.862897
11
-23.623607
21
-5.922057
0
LINE
8
0
10
-23.623607
20
-5.922057
11
-24.925800
21
-7.243720
0
LINE
8
0
10
-24.925800
20
-7.243720
11
-26.228004
21
-5.922051
0
LINE
8
0
10
-26.228004
20
-5.922051
11
-27.733527
21
-4.862889
0
LINE
8
0
10
-27.733527
20
-4.862889
11
-29.403549
21
-4.088648
0
LINE
8
0
10
-29.403549
20
-4.088648
11
-31.199250
21
-3.621740
0
LINE
8
0
10
-31.199300
20
-3.621740
11
-30.705803
21
-1.833163
0
LINE
8
0
10
-30.705803
20
-1.833163
11
-30.541304
21
0.000240
0
LINE
8
0
10
-30.541304
20
0.000240
11
-30.705803
21
1.833643
0
LINE
8
0
10
-30.705803
20
1.833643
11
-31.199300
21
3.622220
0
LINE
8
0
10
-31.199300
20
3.622230
11
-29.403586
21
4.089131
0
LINE
8
0
10
-29.403586
20
4.089131
11
-27.733550
21
4.863371
0
LINE
8
0
10
-27.733550
20
4.863371
11
-26.228014
21
5.922535
0
LINE
8
0
10
-26.228014
20
5.922535
11
-24.925800
21
7.244210
0
LINE
8
0
10
-24.925800
20
0.000161
11
-12.378900
21
7.244801
0
LINE
8
0
10
-24.925800
20
0.000161
11
-24.925800
21
14.489400
0
LINE
8
0
10
-24.925800
20
11.325700
11
-22.626850
21
13.625810
0
LINE
8
0
10
-24.925800
20
11.325700
11
-27.224750
21
13.625810
0
LINE
8
0
10
-15.117000
20
5.664360
11
-11.976600
21
4.823338
0
LINE
8
0
10
-15.117000
20
5.664360
11
-14.275527
21
8.802670
0
LINE
8
0
10
-24.925800
20
0.000161
11
-12.378900
21
-7.244479
0
LINE
8
0
10
-15.117000
20
-5.664030
11
-14.275527
21
-8.802340
0
LINE
8
0
10
-15.117000
20
-5.664030
11
-11.976600
21
-4.820186
0
LINE
8
0
10
-24.925800
20
0.000161
11
-24.925800
21
-14.486300
0
LINE
8
0
10
-24.925800
20
-11.325400
11
-27.224750
21
-13.625510
0
LINE
8
0
10
-24.925800
20
-11.325400
11
-22.626850
21
-13.625510
0
LINE
8
0
10
-24.925800
20
0.000161
11
-37.472800
21
-7.244479
0
LINE
8
0
10
-34.734800
20
-5.664030
11
-37.875080
21
-4.820186
0
LINE
8
0
10
-34.734800
20
-5.664030
11
-35.576104
21
-8.802340
0
LINE
8
0
10
-24.925800
20
0.000161
11
-37.472800
21
7.244801
0
LINE
8
0
10
-34.734800
20
5.664360
11
-35.576104
21
8.802670
0
LINE
8
0
10
-34.734800
20
5.664360
11
-37.875080
21
4.823338
0
LINE
8
0
10
-24.855300
20
0.000245
11
-24.890578
21
0.061348
0
LINE
8
0
10
-24.890578
20
0.061348
11
-24.961133
21
0.061348
0
LINE
8
0
10
-24.961133
20
0.061348
11
-24.996411
21
0.000245
0
LINE
8
0
10
-24.996411
20
0.000245
11
-24.961133
21
-0.060858
0
LINE
8
0
10
-24.961133
20
-0.060858
11
-24.890578
21
-0.060858
0
LINE
8
0
10
-24.890578
20
-0.060858
11
-24.855300
21
0.000245
0
LINE
8
0
10
-24.855300
20
0.000245
11
-24.855300
21
0.000245
0
LINE
8
0
10
-24.855300
20
0.000245
11
-24.890578
21
0.061348
0
LINE
8
0
10
-24.890578
20
0.061348
11
-24.961133
21
0.061348
0
LINE
8
0
10
-24.961133
20
0.061348
11
-24.996411
21
0.000245
0
LINE
8
0
10
-24.996411
20
0.000245
11
-24.961133
21
-0.060858
0
LINE
8
0
10
-24.961133
20
-0.060858
11
-24.890578
21
-0.060858
0
LINE
8
0
10
-24.890578
20
-0.060858
11
-24.855300
21
0.000245
0
LINE
8
0
10
-24.855300
20
0.000245
11
-24.855300
21
0.000245
0
LINE
8
0
10
-45.123100
20
-20.319800
11
-2.075200
21
-20.319800
0
LINE
8
0
10
-4.483150
20
20.320100
11
-45.123100
21
20.320100
0
LINE
8
0
10
-45.123100
20
20.320100
11
-94.826600
21
13.546770
0
LINE
8
0
10
-94.826600
20
13.546800
11
-94.826600
21
-13.546500
0
LINE
8
0
10
-94.826600
20
-13.546500
11
-45.123100
21
-20.319830
0
LINE
8
0
10
-2.075200
20
-20.319700
11
-0.941337
21
-15.241214
0
LINE
8
0
10
-0.941337
20
-15.241214
11
-0.220352
21
-10.113023
0
LINE
8
0
10
-0.220352
20
-10.113023
11
0.089214
21
-4.959762
0
LINE
8
0
10
0.089214
20
-4.959762
11
-0.011179
21
0.193931
0
LINE
8
0
10
-0.011179
20
0.193931
11
-0.520072
21
5.323421
0
LINE
8
0
10
-0.520072
20
5.323421
11
-1.436005
21
10.404070
0
LINE
8
0
10
-1.436005
20
10.404070
11
-2.757517
21
15.411242
0
LINE
8
0
10
-2.757517
20
15.411242
11
-4.483150
21
20.320300
 0 
ENDSEC
 0 
EOF