<?xml version="1.0" encoding="UTF-8" standalone="no"?>
<svg
   viewBox="0 0 384.00001 192.00001"
   width="4in"
   height="2in"
   version="1.1"
   id="svg343"
   sodipodi:docname="Fan_Blades.svg"
   inkscape:version="1.1.1 (3bf5ae0d25, 2021-09-20)"
   xmlns:inkscape="http://www.inkscape.org/namespaces/inkscape"
   xmlns:sodipodi="http://sodipodi.sourceforge.net/DTD/sodipodi-0.dtd"
   xmlns="http://www.w3.org/2000/svg"
   xmlns:svg="http://www.w3.org/2000/svg">
  <sodipodi:namedview
     id="namedview345"
     pagecolor="#ffffff"
     bordercolor="#666666"
     borderopacity="1.0"
     inkscape:pageshadow="2"
     inkscape:pageopacity="0.0"
     inkscape:pagecheckerboard="0"
     showgrid="false"
     inkscape:zoom="1.8116735"
     inkscape:cx="204.23106"
     inkscape:cy="92.179965"
     inkscape:window-width="2160"
     inkscape:window-height="1346"
     inkscape:window-x="-11"
     inkscape:window-y="-11"
     inkscape:window-maximized="1"
     inkscape:current-layer="g637"
     units="in"
     inkscape:document-units="in" />
  <desc
     id="desc260">Fan_Blades.DXF - scale = 1.0, origin = (0.0, 0.0), method = manual</desc>
  <defs
     id="defs275">
    <marker
       id="DistanceX"
       orient="auto"
       refX="0"
       refY="0"
       style="overflow:visible">
      <path
         d="M 3,-3 -3,3 M 0,-5 V 5"
         style="stroke:#000000;stroke-width:0.5"
         id="path262" />
    </marker>
    <pattern
       id="Hatch"
       patternUnits="userSpaceOnUse"
       width="8"
       height="8"
       x="0"
       y="0">
      <path
         d="M8 4 l-4,4"
         stroke="#000000"
         stroke-width="0.25"
         linecap="square"
         id="path265" />
      <path
         d="M6 2 l-4,4"
         stroke="#000000"
         stroke-width="0.25"
         linecap="square"
         id="path267" />
      <path
         d="M4 0 l-4,4"
         stroke="#000000"
         stroke-width="0.25"
         linecap="square"
         id="path269" />
    </pattern>
    <symbol
       id="*Model_Space" />
    <symbol
       id="*Paper_Space" />
    <symbol
       id="*Paper_Space0" />
    <marker
       id="DistanceX-3"
       orient="auto"
       refX="0"
       refY="0"
       style="overflow:visible">
      <path
         d="M 3,-3 -3,3 M 0,-5 V 5"
         style="stroke:#000000;stroke-width:0.5"
         id="path349" />
    </marker>
    <pattern
       id="Hatch-7"
       patternUnits="userSpaceOnUse"
       width="8"
       height="8"
       x="0"
       y="0">
      <path
         d="M8 4 l-4,4"
         stroke="#000000"
         stroke-width="0.25"
         linecap="square"
         id="path352" />
      <path
         d="M6 2 l-4,4"
         stroke="#000000"
         stroke-width="0.25"
         linecap="square"
         id="path354" />
      <path
         d="M4 0 l-4,4"
         stroke="#000000"
         stroke-width="0.25"
         linecap="square"
         id="path356" />
    </pattern>
    <symbol
       id="*Model_Space-7" />
    <symbol
       id="*Paper_Space-5" />
    <symbol
       id="*Paper_Space0-1" />
    <marker
       id="DistanceX-5"
       orient="auto"
       refX="0"
       refY="0"
       style="overflow:visible">
      <path
         d="M 3,-3 -3,3 M 0,-5 V 5"
         style="stroke:#000000;stroke-width:0.5"
         id="path558" />
    </marker>
    <pattern
       id="Hatch-75"
       patternUnits="userSpaceOnUse"
       width="8"
       height="8"
       x="0"
       y="0">
      <path
         d="M8 4 l-4,4"
         stroke="#000000"
         stroke-width="0.25"
         linecap="square"
         id="path561" />
      <path
         d="M6 2 l-4,4"
         stroke="#000000"
         stroke-width="0.25"
         linecap="square"
         id="path563" />
      <path
         d="M4 0 l-4,4"
         stroke="#000000"
         stroke-width="0.25"
         linecap="square"
         id="path565" />
    </pattern>
    <symbol
       id="*Model_Space-4" />
    <symbol
       id="*Paper_Space-6" />
    <symbol
       id="*Paper_Space0-4" />
  </defs>
  <g
     inkscape:groupmode="layer"
     inkscape:label="0"
     id="g341">
    <path
       d="m -3.477165,1121.5092 a 1.436537,1.436537 0 0 0 0.875148,0.5052"
       style="fill:none;stroke:#000000;stroke-linecap:round"
       id="path277" />
    <path
       d="m -2.602017,1122.0144 a 1.436537,1.436537 0 0 0 0,1.0106"
       style="fill:none;stroke:#000000;stroke-linecap:round"
       id="path279" />
    <path
       d="m -2.602017,1123.025 a 1.436537,1.436537 0 0 0 -0.875148,0.5052"
       style="fill:none;stroke:#000000;stroke-linecap:round"
       id="path281" />
    <path
       d="m -3.477165,1123.5302 a 1.436537,1.436537 0 0 0 -0.875149,-0.5052"
       style="fill:none;stroke:#000000;stroke-linecap:round"
       id="path283" />
    <path
       d="m -4.352314,1123.025 a 1.436537,1.436537 0 0 0 0,-1.0106"
       style="fill:none;stroke:#000000;stroke-linecap:round"
       id="path285" />
    <path
       d="m -4.352314,1122.0144 a 1.436537,1.436537 0 0 0 0.875149,-0.5052"
       style="fill:none;stroke:#000000;stroke-linecap:round"
       id="path287" />
    <path
       style="fill:none;stroke:#000000;stroke-linecap:round"
       d="m -3.47716,1122.52 1.75029,-1.01"
       id="path289" />
    <path
       style="fill:none;stroke:#000000;stroke-linecap:round"
       d="m -3.47716,1122.52 v -2.02"
       id="path291" />
    <path
       style="fill:none;stroke:#000000;stroke-linecap:round"
       d="m -3.47716,1120.94 0.3207,-0.32"
       id="path293" />
    <path
       style="fill:none;stroke:#000000;stroke-linecap:round"
       d="m -3.47716,1120.94 -0.32071,-0.32"
       id="path295" />
    <path
       style="fill:none;stroke:#000000;stroke-linecap:round"
       d="m -2.10882,1121.73 0.43809,0.12"
       id="path297" />
    <path
       style="fill:none;stroke:#000000;stroke-linecap:round"
       d="m -2.10882,1121.73 0.11738,-0.44"
       id="path299" />
    <path
       style="fill:none;stroke:#000000;stroke-linecap:round"
       d="m -3.47716,1122.52 1.75029,1.01"
       id="path301" />
    <path
       style="fill:none;stroke:#000000;stroke-linecap:round"
       d="m -2.10882,1123.31 0.11738,0.44"
       id="path303" />
    <path
       style="fill:none;stroke:#000000;stroke-linecap:round"
       d="m -2.10882,1123.31 0.43809,-0.12"
       id="path305" />
    <path
       style="fill:none;stroke:#000000;stroke-linecap:round"
       d="m -3.47716,1122.52 v 2.02"
       id="path307" />
    <path
       style="fill:none;stroke:#000000;stroke-linecap:round"
       d="m -3.47716,1124.1 -0.32071,0.32"
       id="path309" />
    <path
       style="fill:none;stroke:#000000;stroke-linecap:round"
       d="m -3.47716,1124.1 0.3207,0.32"
       id="path311" />
    <path
       style="fill:none;stroke:#000000;stroke-linecap:round"
       d="m -3.47716,1122.52 -1.7503,1.01"
       id="path313" />
    <path
       style="fill:none;stroke:#000000;stroke-linecap:round"
       d="m -4.84551,1123.31 -0.43809,-0.12"
       id="path315" />
    <path
       style="fill:none;stroke:#000000;stroke-linecap:round"
       d="m -4.84551,1123.31 -0.11738,0.44"
       id="path317" />
    <path
       style="fill:none;stroke:#000000;stroke-linecap:round"
       d="m -3.47716,1122.52 -1.7503,-1.01"
       id="path319" />
    <path
       style="fill:none;stroke:#000000;stroke-linecap:round"
       d="m -4.84551,1121.73 -0.11738,-0.44"
       id="path321" />
    <path
       style="fill:none;stroke:#000000;stroke-linecap:round"
       d="m -4.84551,1121.73 -0.43809,0.12"
       id="path323" />
    <path
       d="m -3.227165,1122.5197 a 0.25,0.25 0 1 0 -0.5,0 0.25,0.25 0 1 0 0.5,0 z"
       style="fill:none;stroke:#000000;stroke-linecap:round"
       id="path325" />
    <path
       d="m -3.227165,1122.5197 a 0.25,0.25 0 1 0 -0.5,0 0.25,0.25 0 1 0 0.5,0 z"
       style="fill:none;stroke:#000000;stroke-linecap:round"
       id="path327" />
    <path
       style="fill:none;stroke:#000000;stroke-width:0.6;stroke-linecap:round"
       d="m -6.29469,1125.35 h 6.005199"
       id="path329" />
    <path
       style="fill:none;stroke:#000000;stroke-width:0.6;stroke-linecap:round"
       d="M -0.625401,1119.69 H -6.29469"
       id="path331" />
    <path
       style="fill:none;stroke:#000000;stroke-width:0.6;stroke-linecap:round"
       d="m -6.29469,1119.69 -6.93361,0.94"
       id="path333" />
    <path
       style="fill:none;stroke:#000000;stroke-width:0.6;stroke-linecap:round"
       d="m -13.2283,1120.63 v 3.78"
       id="path335" />
    <path
       style="fill:none;stroke:#000000;stroke-width:0.6;stroke-linecap:round"
       d="m -13.2283,1124.41 6.93361,0.94"
       id="path337" />
    <path
       d="m -0.289491,1125.3543 a 9.05655,9.05655 0 0 0 -0.33591,-5.6693"
       style="fill:none;stroke:#000000;stroke-width:0.6;stroke-linecap:round"
       id="path339" />
    <g
       inkscape:label="0"
       id="g637"
       transform="translate(350.48157,-1035.0913)">
      <g
         id="g2670">
        <path
           style="color:#000000;fill:#000000;stroke-linecap:round;-inkscape-stroke:none"
           d="M -88.320312,1069.5 A 1.6800001,1.6800001 0 0 0 -90,1071.1797 v 7.1523 l -5.277344,-5.2793 a 1.6800001,1.6800001 0 0 0 -2.376953,0 1.6800001,1.6800001 0 0 0 0,2.375 L -90,1083.0859 v 13.0879 c -5.209649,6.1407 -12.37222,10.2751 -20.29492,11.7168 l -11.33789,-6.5468 -2.80078,-10.4493 a 1.6800001,1.6800001 0 0 0 -2.0586,-1.1875 1.6800001,1.6800001 0 0 0 -1.1875,2.0586 l 1.92969,7.2012 -6.1875,-3.5723 a 1.6800001,1.6800001 0 0 0 -2.29492,0.6153 1.6800001,1.6800001 0 0 0 0.61523,2.2949 l 6.1875,3.5723 -7.20703,1.9296 a 1.6800001,1.6800001 0 0 0 -1.18945,2.0586 1.6800001,1.6800001 0 0 0 2.05859,1.1875 l 10.45117,-2.7988 11.33985,6.5469 c 2.7144,7.5839 2.7144,15.8536 0,23.4375 l -11.33789,6.5469 -10.45313,-2.8067 a 1.6800001,1.6800001 0 0 0 -2.05859,1.1856 1.6800001,1.6800001 0 0 0 1.1875,2.0586 l 7.21094,1.9375 -6.18946,3.5742 a 1.6800001,1.6800001 0 0 0 -0.61523,2.2949 1.6800001,1.6800001 0 0 0 2.29492,0.6152 l 6.18945,-3.5742 -1.93164,7.2051 a 1.6800001,1.6800001 0 0 0 1.1875,2.0566 1.6800001,1.6800001 0 0 0 2.0586,-1.1875 l 2.80078,-10.4511 11.33593,-6.545 c 7.9236,1.4414 15.08672,5.5756 20.29688,11.7168 v 13.0899 l -7.654297,7.6582 a 1.6800001,1.6800001 0 0 0 0,2.375 1.6800001,1.6800001 0 0 0 2.376953,0 L -90,1166.709 v 7.1406 a 1.6800001,1.6800001 0 0 0 1.679688,1.6797 1.6800001,1.6800001 0 0 0 1.679687,-1.6797 v -7.1426 l 5.277344,5.2813 a 1.6800001,1.6800001 0 0 0 2.376953,0 1.6800001,1.6800001 0 0 0 0,-2.375 l -7.654297,-7.6602 v -13.0859 c 5.2103,-6.1424 12.37241,-10.2773 20.296875,-11.7188 l 11.335938,6.5469 2.802734,10.4492 a 1.6800001,1.6800001 0 0 0 2.058594,1.1875 1.6800001,1.6800001 0 0 0 1.1875,-2.0566 l -1.931641,-7.2031 6.1875,3.5722 a 1.6800001,1.6800001 0 0 0 2.294922,-0.6152 1.6800001,1.6800001 0 0 0 -0.613281,-2.2949 l -6.189453,-3.5742 L -42,1141.2227 a 1.6800001,1.6800001 0 0 0 1.185547,-2.0586 1.6800001,1.6800001 0 0 0 -2.058594,-1.1856 l -10.451172,2.8067 -11.339843,-6.5469 c -2.714401,-7.5839 -2.714401,-15.8536 0,-23.4375 l 11.339843,-6.5469 10.453125,2.7988 a 1.6800001,1.6800001 0 0 0 2.056641,-1.1875 1.6800001,1.6800001 0 0 0 -1.1875,-2.0586 l -7.207031,-1.9296 6.1875,-3.5723 a 1.6800001,1.6800001 0 0 0 0.613281,-2.2949 1.6800001,1.6800001 0 0 0 -2.294922,-0.6153 l -6.1875,3.5723 1.931641,-7.2012 a 1.6800001,1.6800001 0 0 0 -1.1875,-2.0586 1.6800001,1.6800001 0 0 0 -2.058594,1.1875 l -2.802734,10.4493 -11.337891,6.5468 c -7.923571,-1.4419 -15.085132,-5.5769 -20.294922,-11.7187 v -13.084 l 7.654297,-7.6602 a 1.6800001,1.6800001 0 0 0 0,-2.375 1.6800001,1.6800001 0 0 0 -2.376953,0 l -5.277344,5.2813 v -7.1543 a 1.6800001,1.6800001 0 0 0 -1.679687,-1.6797 z m 1.679687,31.4395 c 4.543317,4.4186 10.067942,7.6099 16.166016,9.3359 l -16.166016,9.334 z m -3.359375,0 v 18.668 l -16.16602,-9.334 c 6.09746,-1.7257 11.622891,-4.9162 16.16602,-9.334 z m -17.84766,12.2422 16.167973,9.3359 -16.167973,9.336 c 1.55536,-6.1455 1.55548,-12.5265 0,-18.6719 z m 39.056644,0 c -1.555538,6.1455 -1.55542,12.5263 0,18.6719 l -16.169921,-9.336 z M -90,1125.4297 v 18.668 c -4.543129,-4.4178 -10.06856,-7.6084 -16.16602,-9.334 z m 3.359375,0 16.166016,9.334 c -6.098074,1.7259 -11.622699,4.9173 -16.166016,9.3359 z"
           id="path623" />
      </g>
      <g
         id="g4255">
        <path
           style="fill:none;stroke:#000000;stroke-width:0.6;stroke-linecap:round"
           d="M -159.885,1194.52 H -7.35306"
           id="path625" />
        <path
           style="fill:none;stroke:#000000;stroke-width:0.6;stroke-linecap:round"
           d="M -15.8852,1050.52 H -159.885"
           id="path627" />
        <path
           style="fill:none;stroke:#000000;stroke-width:0.6;stroke-linecap:round"
           d="m -159.885,1050.52 -176.115,24"
           id="path629" />
        <path
           style="fill:none;stroke:#000000;stroke-width:0.6;stroke-linecap:round"
           d="m -336,1074.52 v 96"
           id="path631" />
        <path
           style="fill:none;stroke:#000000;stroke-width:0.6;stroke-linecap:round"
           d="m -336,1170.52 176.115,24"
           id="path633" />
        <path
           d="m -7.353062,1194.5197 a 230.03636,230.03636 0 0 0 -8.53212,-144"
           style="fill:none;stroke:#000000;stroke-width:0.6;stroke-linecap:round"
           id="path635" />
      </g>
    </g>
  </g>
</svg>
